<svg width="24" height="24" viewBox="0 0 24 24" fill="none" xmlns="http://www.w3.org/2000/svg">
<mask id="mask0_31_7" style="mask-type:alpha" maskUnits="userSpaceOnUse" x="0" y="0" width="24" height="24">
<rect width="24" height="24" fill="#D9D9D9"/>
</mask>
<g mask="url(#mask0_31_7)">
<path d="M18.9 20.3L13.25 14.65L14.65 13.25L20.3 18.9C20.4833 19.0833 20.575 19.3167 20.575 19.6C20.575 19.8833 20.4833 20.1167 20.3 20.3C20.1167 20.4833 19.8833 20.575 19.6 20.575C19.3167 20.575 19.0833 20.4833 18.9 20.3ZM4.525 18.5C4.00833 17.6667 3.625 16.7958 3.375 15.8875C3.125 14.9792 3 14.05 3 13.1C3 11.8 3.24167 10.5333 3.725 9.3C4.20833 8.06667 4.95 6.95 5.95 5.95C6.95 4.95 8.07083 4.20417 9.3125 3.7125C10.5542 3.22083 11.825 2.975 13.125 2.975C14.075 2.975 15.0042 3.10417 15.9125 3.3625C16.8208 3.62083 17.6833 4.00833 18.5 4.525C19.0167 4.85833 19.2917 5.33333 19.325 5.95C19.3583 6.56667 19.1417 7.10833 18.675 7.575L7.575 18.675C7.10833 19.1417 6.5625 19.3583 5.9375 19.325C5.3125 19.2917 4.84167 19.0167 4.525 18.5ZM6.15 17.25L7.5 15.9C7.23333 15.55 6.97917 15.1917 6.7375 14.825C6.49583 14.4583 6.275 14.0917 6.075 13.725C5.875 13.3583 5.7 12.9917 5.55 12.625C5.4 12.2583 5.26667 11.9 5.15 11.55C4.96667 12.5333 4.95417 13.5167 5.1125 14.5C5.27083 15.4833 5.61667 16.4 6.15 17.25ZM8.95 14.5L14.5 8.9C13.7833 8.35 13.0625 7.90417 12.3375 7.5625C11.6125 7.22083 10.9333 6.9875 10.3 6.8625C9.66667 6.7375 9.09583 6.71667 8.5875 6.8C8.07917 6.88333 7.68333 7.06667 7.4 7.35C7.11667 7.65 6.93333 8.05417 6.85 8.5625C6.76667 9.07083 6.7875 9.64583 6.9125 10.2875C7.0375 10.9292 7.27083 11.6083 7.6125 12.325C7.95417 13.0417 8.4 13.7667 8.95 14.5ZM17.3 6.15C16.4167 5.61667 15.4833 5.26667 14.5 5.1C13.5167 4.93333 12.5333 4.95 11.55 5.15C11.9167 5.26666 12.2833 5.4 12.65 5.55C13.0167 5.7 13.3833 5.87083 13.75 6.0625C14.1167 6.25417 14.4792 6.47083 14.8375 6.7125C15.1958 6.95416 15.55 7.21667 15.9 7.5L17.3 6.15Z" fill="#FF9C28"/>
</g>
</svg>
